<svg width="15" height="14" viewBox="0 0 15 14" fill="none" xmlns="http://www.w3.org/2000/svg">
<path d="M4.14282 1.49524L4.66167 0.640373L4.14282 0.325465L3.62397 0.640374L4.14282 1.49524ZM7.14282 3.31605L6.62397 4.17091L7.14282 4.48582L7.66167 4.17091L7.14282 3.31605ZM1.14282 3.31605L0.623973 2.46118L0.142822 2.75321V3.31605H1.14282ZM1.14282 7.21778H0.142822V7.67931L0.494025 7.97874L1.14282 7.21778ZM7.14282 12.3334L6.49403 13.0943L7.14282 13.6475L7.79162 13.0943L7.14282 12.3334ZM13.1428 7.21778L13.7916 7.97874L14.1428 7.67931V7.21778H13.1428ZM13.1428 3.31605H14.1428V2.75321L13.6617 2.46118L13.1428 3.31605ZM10.1428 1.49524L10.6617 0.640374L10.1428 0.325465L9.62398 0.640373L10.1428 1.49524ZM3.62397 2.35011L6.62397 4.17091L7.66167 2.46118L4.66167 0.640373L3.62397 2.35011ZM1.66167 4.17091L4.66167 2.3501L3.62397 0.640374L0.623973 2.46118L1.66167 4.17091ZM2.14282 7.21778V3.31605H0.142822V7.21778H2.14282ZM7.79162 11.5724L1.79162 6.45682L0.494025 7.97874L6.49403 13.0943L7.79162 11.5724ZM7.79162 13.0943L13.7916 7.97874L12.494 6.45682L6.49403 11.5724L7.79162 13.0943ZM14.1428 7.21778V3.31605H12.1428V7.21778H14.1428ZM13.6617 2.46118L10.6617 0.640374L9.62397 2.3501L12.624 4.17091L13.6617 2.46118ZM9.62398 0.640373L6.62397 2.46118L7.66167 4.17091L10.6617 2.35011L9.62398 0.640373Z" fill="white"/>
</svg>
