<svg width="123" height="44" viewBox="0 0 123 44" fill="none" xmlns="http://www.w3.org/2000/svg"> <path d="M122.222 36.0649V43.9709H107.58V0.00585938H115.465V36.0649H122.222ZM59.658 21.5649C59.048 21.8589 58.41 22.0049 57.788 22.0069V7.86686H57.828C58.45 7.86186 63.092 8.05086 63.092 14.8599C63.092 18.4189 61.512 20.6639 59.658 21.5649ZM36.55 30.2459L38.733 11.4469L40.998 30.2459H36.55ZM106.205 8.03086V0.0128593H83.879L80.204 26.7919L76.574 0.0118594H68.522L69.423 7.16186C68.495 5.32986 65.199 0.0118594 57.943 0.0118594C57.896 0.00985942 49.883 0.0118594 49.883 0.0118594L49.852 39.0439L43.984 0.0128593L33.439 0.00785923L27.367 40.4479L27.369 0.0128593H17.278L13.64 22.7299L10.096 0.0118594H0V43.9779H7.95V22.7859L11.568 43.9779H15.794L19.359 22.7859V43.9779H34.686L35.614 37.2159H41.784L42.711 43.9779L57.758 43.9859H57.768V43.9779H57.788V29.7079L59.633 29.4379L63.45 43.9879H71.234L71.232 43.9779H71.254L66.243 26.9299C68.781 25.0499 71.649 20.2859 70.886 15.7269V15.7249C70.894 15.7829 75.615 44.0059 75.615 44.0059L84.871 43.9789L91.198 4.12886V43.9789H106.205V36.0709H99.081V25.9909H106.205V17.9609H99.081V8.02986L106.205 8.03086Z" fill="#FEFEFE"/> </svg>